<svg xmlns="http://www.w3.org/2000/svg" xmlns:xlink="http://www.w3.org/1999/xlink" width="408.466" height="284" viewBox="0 0 408.466 284">
  <defs>
    <clipPath id="clip-path">
      <path id="Path_8" data-name="Path 8" d="M380.573,323.34c-10.058,29.032-22.071,57.7-63.853,68.771L136.129,390.2C95.435,371.026,73.2,333.171,69.5,292.329a138.893,138.893,0,0,1,2.414-40.907q1.112-5.365,2.654-10.665c9.329-32.084,29.076-62.332,58.45-79.394,18.874-10.963,43.066-7.344,63.112-1.717,18.073,5.073,35.727,12.179,54.386,14.319,14.863,1.7,29.984.191,44.9.775a109.5,109.5,0,0,1,15.9,1.669c22.525,4.221,42.493,18,56.2,36.418a100.077,100.077,0,0,1,11.786,20.436C391.355,261.527,390.632,294.308,380.573,323.34Z" fill="none"/>
    </clipPath>
    <clipPath id="clip-path-2">
      <rect id="crop" width="47" height="100" transform="translate(54.162 45.742)" fill="none"/>
    </clipPath>
    <clipPath id="clip-path-3">
      <path id="Path_172" data-name="Path 172" d="M96.892,60.862a12.205,12.205,0,0,0-.053-9.542c-2.047-4.837-6.569-6.927-10.1-4.668A7.508,7.508,0,0,0,84.025,49.9a9.893,9.893,0,0,0-8.1,4.182c-4.272,5.739-3.438,15.229,1.864,21.2s13.064,6.151,17.337.412C98.073,71.738,98.591,66,96.892,60.862Z" fill="#f78690"/>
    </clipPath>
    <clipPath id="clip-path-4">
      <ellipse id="Ellipse_2" data-name="Ellipse 2" cx="2.716" cy="3.339" rx="2.716" ry="3.339" transform="matrix(0.869, -0.494, 0.494, 0.869, 90.289, 51.786)" fill="#783333"/>
    </clipPath>
  </defs>
  <g id="Group_337" data-name="Group 337" transform="translate(-394.515 -360)">
    <g id="Vector_Smart_Object" data-name="Vector Smart Object" transform="translate(357.298 224.458)">
      <g id="Group_31" data-name="Group 31">
        <g id="Group_2" data-name="Group 2">
          <path id="Path_1" data-name="Path 1" d="M430.183,364.434c-.039,0-.077,0-.116,0l.338-5.826H400.691l1.432,24.716a8.77,8.77,0,0,0,8.765,8.252h9.319a8.77,8.77,0,0,0,8.765-8.252l.331-5.7c.289.027.582.044.88.044,4.338,0,7.867-2.969,7.867-6.618S434.52,364.434,430.183,364.434Zm0,10.494a6.691,6.691,0,0,1-.721-.043l.446-7.7c.092,0,.182-.01.275-.01,2.822,0,5.118,1.739,5.118,3.876S433,374.928,430.183,374.928Z" fill="#ee6f57"/>
          <g id="Group_1" data-name="Group 1">
            <path id="Path_2" data-name="Path 2" d="M418.556,356.372a11.679,11.679,0,0,1-7.536-4.467,11.912,11.912,0,0,1-2.095-4.108c-.118-.373-.188-.757-.271-1.138-.052-.385-.127-.77-.148-1.157a12.508,12.508,0,0,1,.012-2.325,12.862,12.862,0,0,1,1.266-4.446,11.843,11.843,0,0,1,1.223-1.978,12.354,12.354,0,0,1,1.544-1.683c.524-.486,1.028-.905,1.459-1.326a7.37,7.37,0,0,0,.6-.625,4.18,4.18,0,0,0,.445-.629,3.013,3.013,0,0,0,.415-1.424,1.828,1.828,0,0,0-.414-1.307l.748-1.088a2.852,2.852,0,0,1,1.023.9,3.739,3.739,0,0,1,.541,1.23,4.874,4.874,0,0,1-.118,2.576,11.622,11.622,0,0,1-2.558,3.767,11.506,11.506,0,0,0-1.086,1.437c-.166.24-.3.5-.449.754-.126.266-.269.52-.377.794a11.538,11.538,0,0,0-.9,3.386,10.711,10.711,0,0,0,1.509,6.74,12.72,12.72,0,0,0,5.52,4.845Z" fill="#e5ecff"/>
            <path id="Path_3" data-name="Path 3" d="M419.446,349.436a14.284,14.284,0,0,0,2.9-3.447,11.487,11.487,0,0,0,1.479-3.932,12.085,12.085,0,0,0-.066-4.189,15.583,15.583,0,0,0-1.494-4.244l.964-.9a8.876,8.876,0,0,1,3.387,4.3,10.352,10.352,0,0,1,.533,5.627,10.605,10.605,0,0,1-2.476,5.076,9.213,9.213,0,0,1-4.635,2.893Z" fill="#e5ecff"/>
          </g>
        </g>
        <g id="Group_6" data-name="Group 6">
          <path id="Path_4" data-name="Path 4" d="M184.9,390.311c-37.944-7.328-64.744-29.381-77.185-63.542-19.789-54.339,1.415-134.443,58.142-152.042,22.466-6.97,50.055,5.511,73.135,5.341,32.418-.239,61.57-20.082,93.773-17.552,41.925,3.294,72.572,41.821,80.433,80.911a115.207,115.207,0,0,1,.851,40.81,124.222,124.222,0,0,1-14.385,41.773c-6.253,10.957-20.708,25.463-33,28.384Z" fill="none" stroke="#fbc343" stroke-miterlimit="10" stroke-width="0.912"/>
          <path id="Path_5" data-name="Path 5" d="M286.464,384.244c37.5-9.235,66.153-37.128,76.032-69.043,15.715-50.767-11.644-122.193-69.879-134.36-11.829-2.472-24.3-1.846-36.3-.463-19.6,2.259-39.713,5.1-59.469,4.471-19.213-.612-37.844-6.245-57.206-5.81-63.993,1.437-102.318,62.395-87.63,118.215a108.283,108.283,0,0,0,17.6,37.023c7.1,9.543,22.706,21.759,35.261,23.583Z" fill="none" stroke="#fbc343" stroke-miterlimit="10" stroke-width="0.895"/>
          <g id="Group_5" data-name="Group 5">
            <g id="Group_4" data-name="Group 4" clip-path="url(#clip-path)">
              <g id="Group_3" data-name="Group 3">
                <path id="Path_6" data-name="Path 6" d="M380.573,323.34c-10.058,29.032-22.071,57.7-63.853,68.771L136.129,390.2C95.435,371.026,73.2,333.171,69.5,292.329a138.893,138.893,0,0,1,2.414-40.907q1.112-5.365,2.654-10.665c9.329-32.084,29.076-62.332,58.45-79.394,18.874-10.963,43.066-7.344,63.112-1.717,18.073,5.073,35.727,12.179,54.386,14.319,14.863,1.7,29.984.191,44.9.775a109.5,109.5,0,0,1,15.9,1.669c22.525,4.221,42.493,18,56.2,36.418a100.077,100.077,0,0,1,11.786,20.436C391.355,261.527,390.632,294.308,380.573,323.34Z" fill="#ffeec7"/>
                <path id="Path_7" data-name="Path 7" d="M37.044,367.3c-.823-9.974,4.775-20.728,14.61-28.066,8.958-6.683,20.009-10.09,30.618-12.775,58.947-14.924,121.211-13.144,181.424-11.422,53.811,1.539,109.457,3.13,162.727-7.161,7.583-1.465,15.555-3.247,22.338-7.445,7.287-4.51,11.9-11.573,12.04-18.436.262-12.867-13.712-21.685-22.066-25.8-31.721-15.614-70.752-21.487-122.829-18.488a589.782,589.782,0,0,0-116.843,18.71c-8.616,2.283-17.369,4.806-25.833,7.247-30.3,8.738-61.635,17.773-93.593,17.773h-.48c-8.675-.025-19.812-1.777-23.609-9.986-2.679-5.794-.426-12.395,1.936-16.912,7.894-15.1,22.827-23.9,33.965-28.619,12.512-5.3,26.108-8.188,39.256-10.977q2.342-.5,4.679-1a888.018,888.018,0,0,0,87.261-23.465c13.538-4.394,20.487-10.107,21.242-17.466.67-6.528-4.134-12.244-9.191-15.013-6.059-3.319-13.218-3.749-18.777-3.753h-.078a103.551,103.551,0,0,0-48.159,11.88c-5.472,2.888-10.752,6.322-15.858,9.644-6.76,4.4-13.75,8.945-21.284,12.289-14.57,6.467-31.819,8.85-51.269,7.081C64.253,193.782,52.807,190.1,44.276,183.9c-5.146-3.74-9.443-8.566-13.6-13.233C25.63,165,20.41,159.137,13.7,155.327l.443-.777c6.837,3.882,12.107,9.8,17.2,15.528,4.123,4.631,8.386,9.42,13.455,13.1,8.4,6.1,19.7,9.725,34.546,11.076,19.293,1.755,36.393-.6,50.823-7.007,7.469-3.315,14.429-7.843,21.159-12.221,5.123-3.333,10.42-6.779,15.928-9.686a104.457,104.457,0,0,1,48.578-11.983h.079c5.666,0,12.971.447,19.208,3.864,5.316,2.911,10.362,8.953,9.651,15.888-.795,7.749-7.944,13.711-21.856,18.226a888.961,888.961,0,0,1-87.349,23.489q-2.338.5-4.681,1c-13.107,2.78-26.659,5.655-39.091,10.926-11,4.665-25.75,13.347-33.521,28.209-2.269,4.339-4.443,10.659-1.917,16.124,3.6,7.782,14.383,9.443,22.8,9.467h.478c31.833,0,63.1-9.016,93.344-17.737,8.469-2.442,17.226-4.967,25.852-7.252a590.671,590.671,0,0,1,117.022-18.739c52.24-3.011,91.411,2.893,123.278,18.578,8.544,4.206,22.837,13.255,22.565,26.617-.146,7.161-4.922,14.509-12.464,19.177-6.913,4.278-14.975,6.081-22.641,7.562-53.367,10.31-109.063,8.718-162.923,7.177-60.151-1.719-122.352-3.5-181.178,11.395-10.519,2.664-21.47,6.036-30.3,12.625-9.59,7.155-15.051,17.607-14.254,27.276Z" fill="#fff"/>
              </g>
            </g>
          </g>
        </g>
        <path id="Path_9" data-name="Path 9" d="M297.63,367.651c12.192,3.118,28.945,5.914,23.605,16.312l-30.376-.03Z" fill="#e28b6d"/>
        <g id="Group_7" data-name="Group 7">
          <rect id="Rectangle_1" data-name="Rectangle 1" width="65.715" height="96.099" rx="18.144" transform="translate(123.966 295.298)" fill="#102048"/>
          <path id="Path_10" data-name="Path 10" d="M138.6,304.159a3.991,3.991,0,0,0-2.346,2.319,14.989,14.989,0,0,0-1.08,3.335,44.867,44.867,0,0,0-.865,7.036,127.508,127.508,0,0,0,.148,14.247c.271,4.749.707,9.49,1.282,14.215q.416,3.545.962,7.074c.35,2.354.743,4.7,1.223,7.034l-.342.077c-.572-2.32-1.061-4.66-1.5-7.008q-.628-3.528-1.121-7.078-.961-7.1-1.392-14.264a116.094,116.094,0,0,1-.016-14.345,44.084,44.084,0,0,1,1.031-7.126,15.5,15.5,0,0,1,1.244-3.413,6.4,6.4,0,0,1,1.071-1.5,3.321,3.321,0,0,1,1.622-.938Z" fill="#fff" opacity="0.8"/>
        </g>
        <path id="Path_11" data-name="Path 11" d="M149.84,311.684A397.861,397.861,0,0,0,163.4,390.672h31.983Z" fill="#1f3c88"/>
        <path id="Path_12" data-name="Path 12" d="M164.512,292a14.691,14.691,0,0,1-4.372-22.184q.847-1.013,1.887-2.049c8.967-8.91,3.38-17.823,2.126-38.322-1.252-20.478,21.619-26.07,21.663-26.081,1.079-.263,3.166-3.333,4.048-4.1C200.188,190.342,215,191,226.311,197.8c5.384,3.234,10.8,8.214,13.715,13.926,4.621,9.061,5.457,21,13.24,28.054,11.094,10.058,23.4,18.6,22.9,34.819-.177,5.762-1.622,11.852-5.143,16.471-3.069,4.026-7.743,6.726-11.961,9.33a102.9,102.9,0,0,1-21.752,10.489c-7.412,2.434-14.907,4.622-22.422,6.709q-1.065.3-2.132.587Z" fill="#6f3428"/>
        <path id="Path_13" data-name="Path 13" d="M216.812,283.625c26.862-9.2,41.452,20.791,61.514,79.307l19.3,5.195-2.243,20.839-7.043,1.464-57.507.241Z" fill="#708cd5"/>
        <path id="Path_14" data-name="Path 14" d="M178.97,279.5l60.072,15,25.239,75.436L179.967,372.5l-5.577-55.776Z" fill="#708cd5"/>
        <path id="Path_15" data-name="Path 15" d="M181.088,311.207c14.759,14.821,11.5,36.538,24.1,38.694,8.347,1.427,32.068,4.808,43.385,9.511,2.289.951,8.607,5.639,7.628,9.8-.631,2.68-9.051.533-9.051.533l-63.035-6.31L170.77,332.623Z" fill="#1f3c88" opacity="0.3"/>
        <path id="Path_16" data-name="Path 16" d="M232.939,365.533c.429-.674,9.466-2.462,10.489-2.323a7.778,7.778,0,0,1,6.007,5.094l-13.373,7.035Z" fill="#102048"/>
        <path id="Path_17" data-name="Path 17" d="M242.945,311.141l1.552,3.527c.51,1.179.987,2.371,1.483,3.557.953,2.385,1.872,4.786,2.734,7.205,1.747,4.833,3.293,9.734,4.744,14.662q2.138,7.4,3.84,14.923c.546,2.51,1.075,5.024,1.544,7.549s.853,5.067,1.188,7.614l-.332.047q-.631-3.79-1.444-7.546c-.516-2.509-1.092-5-1.685-7.5q-1.785-7.474-3.927-14.857c-1.4-4.927-2.964-9.808-4.611-14.659-.814-2.429-1.7-4.834-2.591-7.235-.456-1.2-.895-2.4-1.366-3.593l-1.436-3.566Z" fill="#102048"/>
        <g id="Group_8" data-name="Group 8">
          <path id="Path_18" data-name="Path 18" d="M290.962,378.263s-2.528,2.981-10.507.077c-3.759.435-10.752.1-24.049-2.063,0,0,4.829,3.368,15.748,3.946,0,0-.466,3.207-6.221,3.064-6.927-.173-7.728-.59-14.039-.328-1.291.054-4.1-.006-7.142-.1-5.307-.173-11.337-.453-11.337-.453l-5.259-9.377,10.495-5.014a27.433,27.433,0,0,1,6.395-1.914c6.777-.96,11.057-1.723,15.915-.888C266.357,366.137,282.846,371.592,290.962,378.263Z" fill="#f9b384"/>
        </g>
        <path id="Path_19" data-name="Path 19" d="M245.044,382.7l-.293.161c-5.307-.173-11.337-.453-11.337-.453l-5.259-9.377,10.495-5.014a27.433,27.433,0,0,1,6.395-1.914C241.187,367.669,238.028,371.784,245.044,382.7Z" fill="#e28b6d"/>
        <path id="Path_20" data-name="Path 20" d="M203.731,283.046c-13.654-2.79-46.929-5.112-56.227,12.071-7.655,14.147,11.533,61.52,19.845,78.181,3.421,6.858,13.355,10.251,17.218,10.277l54.861-.315c-3.691-.854-8.421-20.609,4-20.05L197.992,356.9a6.225,6.225,0,0,1-4.338-2.72,12.981,12.981,0,0,1-1.809-3.666l-12.9-47.119Z" fill="#708cd5"/>
        <path id="Path_21" data-name="Path 21" d="M325.12,383.575l-53.525-.033v-5.037H325.43Z" fill="#fff"/>
        <g id="Group_9" data-name="Group 9">
          <path id="Path_22" data-name="Path 22" d="M370.343,391.206l-64.568-.02,23.551-68.693,64.568.02Z" fill="#102048"/>
          <path id="Path_23" data-name="Path 23" d="M355.035,360.516c-1.978,3.154-5.678,4.447-8.5,3.064a4.38,4.38,0,0,1-.49-.268c-2.875-1.788-3.5-5.949-1.41-9.282s6.114-4.59,8.989-2.8a5.442,5.442,0,0,1,1.972,2.176A7.341,7.341,0,0,1,355.035,360.516Z" fill="#fff"/>
          <path id="Path_24" data-name="Path 24" d="M355.035,360.516c-1.978,3.154-6.841,5.445-10.25,1.7,7.393.669,9.884-4.162,9.744-10.267A6.937,6.937,0,0,1,355.035,360.516Z" fill="#708cd5"/>
        </g>
        <g id="Group_10" data-name="Group 10">
          <path id="Path_25" data-name="Path 25" d="M260.988,365.041a53.712,53.712,0,0,1,8.034,1.983c2.632.823,5.218,1.785,7.762,2.85a71.793,71.793,0,0,1,7.467,3.567,38.674,38.674,0,0,1,6.822,4.688l-.223.27a40.621,40.621,0,0,0-3.4-2.273c-1.161-.715-2.358-1.372-3.572-2-2.423-1.258-4.9-2.414-7.439-3.438-2.5-1.1-5.079-2.036-7.657-2.95q-1.937-.68-3.9-1.279c-1.306-.408-2.624-.781-3.954-1.076Z" fill="#6f3428"/>
          <path id="Path_26" data-name="Path 26" d="M259.923,377.752l2.888.824c.962.257,1.93.479,2.9.676s1.952.353,2.935.491,1.974.227,2.966.326l.329.033.027.284a2.7,2.7,0,0,1-.108,1.064,1.967,1.967,0,0,1-.579.909,2.195,2.195,0,0,1-.939.455,4.524,4.524,0,0,1-.493.07l-.484-.012v-.35l.433-.065c.136-.041.279-.062.406-.115a1.636,1.636,0,0,0,.652-.423,1.385,1.385,0,0,0,.339-.655,2.02,2.02,0,0,0,.02-.753l.356.317a29.312,29.312,0,0,1-6.043-.737,26.207,26.207,0,0,1-2.925-.859,29.875,29.875,0,0,1-2.8-1.153Z" fill="#6f3428"/>
          <path id="Path_27" data-name="Path 27" d="M257.478,370.81c2.322.3,4.657.523,6.992.761,2.333.257,4.673.483,7.007.851s4.634.792,6.945,1.21,4.619.845,6.922,1.309l.545.11-.233.5a6.689,6.689,0,0,1-.594,1.238,3.514,3.514,0,0,1-.5.577,6.257,6.257,0,0,1-.605.426,8.084,8.084,0,0,1-2.638.834,27.29,27.29,0,0,1-5.32.22c-.881-.032-1.762-.07-2.638-.148s-1.755-.129-2.626-.239c-1.748-.182-3.486-.428-5.222-.681l.044-.347c1.746.143,3.485.337,5.231.44q1.307.1,2.615.159c.872.056,1.742.071,2.613.081a30.879,30.879,0,0,0,5.166-.3,7.332,7.332,0,0,0,2.344-.75c.17-.1.309-.222.465-.33a2.688,2.688,0,0,0,.352-.42,6.3,6.3,0,0,0,.52-1.129l.312.614c-4.61-.866-9.214-1.792-13.83-2.59-2.295-.417-4.625-.7-6.951-1.009s-4.656-.618-6.973-1.044Z" fill="#6f3428"/>
        </g>
        <line id="Line_1" data-name="Line 1" x2="408.466" transform="translate(37.216 391.159)" fill="none" stroke="#102048" stroke-miterlimit="10" stroke-width="1.195"/>
        <path id="Path_28" data-name="Path 28" d="M197.013,300.9a19.56,19.56,0,0,0,6.5,2.871,17.882,17.882,0,0,0,7.037.269,14.641,14.641,0,0,0,6.455-2.669,14.814,14.814,0,0,0,4.474-5.425l.322.138q-.373.835-.768,1.67c-.3.535-.652,1.042-.98,1.566-.364.5-.8.943-1.2,1.418-.429.446-.917.833-1.376,1.253a14.812,14.812,0,0,1-6.786,2.923,17.831,17.831,0,0,1-13.893-3.735Z" fill="#102048"/>
        <path id="Path_29" data-name="Path 29" d="M181.25,311.162l3,10.156,2.948,10.169,2.917,10.178,1.45,5.092.725,2.546a19.185,19.185,0,0,0,.79,2.457,7.328,7.328,0,0,0,3.492,3.46,20.45,20.45,0,0,0,4.914,1.634c1.713.367,3.447.616,5.206.842l5.258.71,10.511,1.451,10.5,1.508-.044.332-10.54-1.247-10.532-1.3-5.264-.667c-1.75-.216-3.523-.462-5.271-.828a21.244,21.244,0,0,1-5.13-1.685,8.051,8.051,0,0,1-3.88-3.857,4.213,4.213,0,0,1-.256-.651c-.073-.219-.156-.445-.209-.654l-.357-1.274-.714-2.549-1.428-5.1-2.84-10.2-2.809-10.208-2.761-10.222Z" fill="#102048"/>
        <g id="Group_13" data-name="Group 13">
          <path id="Path_30" data-name="Path 30" d="M215.37,261.74l2.69,23.1c.8,6.876-6.465,12.638-13.829,10.732-4.211-1.09-8.6-4-13.138-8.366a5.319,5.319,0,0,1-1.628-3.3L186.6,256.068Z" fill="#f9b384"/>
          <path id="Path_31" data-name="Path 31" d="M215.736,264.882l1.465,12.579c-5.951.931-14.339-2.406-22.851-13.674Z" fill="#3c1c16"/>
          <path id="Path_32" data-name="Path 32" d="M230.412,245.109a62.044,62.044,0,0,1-2.185,12.5c-1.991,6.608-5.464,11.939-11.414,12.926-17.518,2.9-30.213-14.466-30.213-14.466l-2.037-23.637,10.573-18.244,23.674-.685,11.545,13.622A112.759,112.759,0,0,1,230.412,245.109Z" fill="#f9b384"/>
          <path id="Path_33" data-name="Path 33" d="M184,241.41c9.4-.7,11.569-8.627,12.212-18.9,0,0,25.471-6.293,34.514,11.768l6.857.741-20.766-27.5-32.274,3.84-6.314,20.9Z" fill="#6f3428"/>
          <path id="Path_34" data-name="Path 34" d="M188.971,238.33a5.138,5.138,0,0,0-4.394-1.637c-6.247.754-7.332,9.006-5.9,12.517,2.138,5.255,7.926,6.855,7.926,6.855l4.973-5.246C191.969,245.355,191.347,240.941,188.971,238.33Z" fill="#f9b384"/>
          <path id="Path_35" data-name="Path 35" d="M189.074,262.4c3.433,9.738,13.994,37.234-3.256,36.543-8.314-.333-15.619-16.419-27.471-13.382a31.209,31.209,0,0,1,4.432-1.708Z" fill="#3c1c16" opacity="0.15"/>
          <path id="Path_36" data-name="Path 36" d="M186.6,256.065c3.327,6.3,12.637,37.494-3.22,35.692-7.643-.868-9.519-10.051-20.6-7.9Z" fill="#6f3428"/>
          <g id="Group_11" data-name="Group 11">
            <path id="Path_37" data-name="Path 37" d="M187.143,244.044a3.441,3.441,0,0,0-.57-1.971,3.52,3.52,0,0,0-1.468-1.288,2.382,2.382,0,0,0-1.81-.1,4.63,4.63,0,0,0-1.671,1.236l-.384-.228a3.624,3.624,0,0,1,1.646-1.923,2.177,2.177,0,0,1,.65-.242,2.255,2.255,0,0,1,.7-.085l.353.011.341.072a2.447,2.447,0,0,1,.653.223,3.87,3.87,0,0,1,1.852,1.857,3.225,3.225,0,0,1,.148,2.528Z" fill="#3c1c16"/>
            <path id="Path_38" data-name="Path 38" d="M220.659,240.522c.056,1.606.995,2.877,2.1,2.839s1.948-1.372,1.891-2.978-.995-2.878-2.1-2.839S220.6,238.915,220.659,240.522Z" fill="#3c1c16"/>
            <path id="Path_39" data-name="Path 39" d="M203.291,241.129c.056,1.606.995,2.877,2.1,2.839s1.948-1.372,1.891-2.978-.995-2.877-2.1-2.839S203.234,239.522,203.291,241.129Z" fill="#3c1c16"/>
            <path id="Path_40" data-name="Path 40" d="M220.439,256.876a8.54,8.54,0,0,1-2.863,2.432,5.624,5.624,0,0,1-3.932.279,9.753,9.753,0,0,1-3.334-1.816,15.514,15.514,0,0,1-2.59-2.606l.362-.373c.992.684,1.922,1.415,2.907,2.03a11.952,11.952,0,0,0,3.021,1.5,5.078,5.078,0,0,0,3.124-.054,12.616,12.616,0,0,0,2.94-1.76Z" fill="#3c1c16"/>
            <path id="Path_41" data-name="Path 41" d="M226.539,235.56a14.617,14.617,0,0,0-2.234-1.368,4.254,4.254,0,0,0-2.18-.4,7.58,7.58,0,0,0-2.259.664c-.781.339-1.545.794-2.422,1.182l-.239-.25a7.066,7.066,0,0,1,1.9-2.189,5.557,5.557,0,0,1,2.883-1.136,4.4,4.4,0,0,1,3.053.93,5.48,5.48,0,0,1,1.769,2.351Z" fill="#3c1c16"/>
            <path id="Path_42" data-name="Path 42" d="M209.138,236.168a9.168,9.168,0,0,0-2.509-1.315,6.308,6.308,0,0,0-2.576-.261,9.571,9.571,0,0,0-2.589.693c-.866.358-1.716.821-2.661,1.271l-.239-.25a7.418,7.418,0,0,1,2.185-2.327,6.624,6.624,0,0,1,3.14-1.14,5.6,5.6,0,0,1,3.329.716,5.126,5.126,0,0,1,2.194,2.4Z" fill="#3c1c16"/>
            <path id="Path_43" data-name="Path 43" d="M192.317,252.24a6.369,6.369,0,1,0,6.143-6.572A6.363,6.363,0,0,0,192.317,252.24Z" fill="#fc8879" opacity="0.5"/>
            <path id="Path_44" data-name="Path 44" d="M230.412,245.109a62.044,62.044,0,0,1-2.185,12.5,6.355,6.355,0,0,1,1.316-12.52A7.322,7.322,0,0,1,230.412,245.109Z" fill="#fc8879" opacity="0.5"/>
            <path id="Path_45" data-name="Path 45" d="M213.47,239.266a.272.272,0,0,1,.532-.049c1.425,4.634,6.051,8.022,5.31,9.383-.521.958-2.478,2.042-3.85,2.712a1.228,1.228,0,0,1-1.745-.868A39.862,39.862,0,0,1,213.47,239.266Z" fill="#fc8879" opacity="0.5"/>
            <path id="Path_46" data-name="Path 46" d="M214.461,238.8a11.872,11.872,0,0,0,1.693,3.748c.758,1.16,1.645,2.237,2.542,3.371.226.284.444.579.659.893a5,5,0,0,1,.593,1.089,1.58,1.58,0,0,1,.084.861,1.729,1.729,0,0,1-.406.739,4.838,4.838,0,0,1-.928.791,15.151,15.151,0,0,1-4.031,1.805l-.2-.479c.611-.362,1.238-.7,1.829-1.09A16.766,16.766,0,0,0,218,249.353a4.81,4.81,0,0,0,.666-.644.989.989,0,0,0,.114-.186.81.81,0,0,0-.055-.189,8.579,8.579,0,0,0-1.079-1.611,25.824,25.824,0,0,1-2.472-3.6,9.351,9.351,0,0,1-1.232-4.263Z" fill="#3c1c16"/>
          </g>
          <g id="Group_12" data-name="Group 12">
            <path id="Path_47" data-name="Path 47" d="M181.033,257.8a5.952,5.952,0,0,0-.475,2.836,9.521,9.521,0,0,0,.683,2.838c.77,1.811,1.8,3.583,2.7,5.41a21.263,21.263,0,0,1,2.094,5.838,13.037,13.037,0,0,1,.152,3.167,13.189,13.189,0,0,1-.262,1.589,7.554,7.554,0,0,1-.589,1.532,6.153,6.153,0,0,1-2.211,2.449,5.156,5.156,0,0,1-3.261.762,12.087,12.087,0,0,1-3.051-.936c-.949-.394-1.876-.807-2.8-1.22a26.156,26.156,0,0,0-5.643-1.957,6.618,6.618,0,0,0-2.864,0,3.9,3.9,0,0,0-1.257.613,4.308,4.308,0,0,0-.961,1.051l-.386-.225a4.8,4.8,0,0,1,1-1.258,4.493,4.493,0,0,1,1.423-.791,7.25,7.25,0,0,1,3.175-.18,26.935,26.935,0,0,1,5.907,1.827l2.807,1.162a11.256,11.256,0,0,0,2.76.83,4.038,4.038,0,0,0,2.553-.628,5.329,5.329,0,0,0,1.8-2.025,6.426,6.426,0,0,0,.514-1.294,12.369,12.369,0,0,0,.244-1.4,11.952,11.952,0,0,0-.111-2.888,22.531,22.531,0,0,0-1.908-5.6c-.832-1.836-1.808-3.6-2.553-5.556a10.214,10.214,0,0,1-.581-3.082,6.174,6.174,0,0,1,.7-3.062Z" fill="#3c1c16"/>
            <path id="Path_48" data-name="Path 48" d="M181.354,204.691a33.7,33.7,0,0,1,5.323-1.8,53.266,53.266,0,0,1,5.5-1.129,47.178,47.178,0,0,1,5.6-.527c.939-.024,1.879-.02,2.82.026a20.1,20.1,0,0,1,2.806.361l-.063.442c-.921-.028-1.834-.06-2.753,0-.917.02-1.835.083-2.751.172q-2.748.249-5.486.656c-1.825.266-3.64.6-5.452.945-.906.174-1.807.375-2.7.59-.9.194-1.788.448-2.681.688Z" fill="#3c1c16"/>
            <path id="Path_49" data-name="Path 49" d="M196.106,222.309a10.222,10.222,0,0,1,2.382-.844c.813-.188,1.632-.352,2.456-.461a36.819,36.819,0,0,1,4.976-.313,37.959,37.959,0,0,1,9.879,1.333,26.525,26.525,0,0,1,9,4.351,19.281,19.281,0,0,1,6.128,7.805l-.4.192a20.982,20.982,0,0,0-6.321-7.2,25.835,25.835,0,0,0-4.16-2.421,31.87,31.87,0,0,0-4.546-1.642,40.251,40.251,0,0,0-9.591-1.458,38.1,38.1,0,0,0-4.87.118,16.832,16.832,0,0,0-4.722.935Z" fill="#3c1c16"/>
          </g>
        </g>
        <g id="Group_17" data-name="Group 17">
          <g id="Group_14" data-name="Group 14">
            <path id="Path_50" data-name="Path 50" d="M83.543,311.266l6.145,1.987a1.346,1.346,0,0,1,.163,2.5l-6.711,3.174.011.091,9.388,1.866a.649.649,0,1,1-.254,1.274L82.9,320.29a1.346,1.346,0,0,1-.315-2.538l6.711-3.174-.006-.09L83.141,312.5a.65.65,0,1,1,.4-1.235Z" fill="#3c1c16"/>
          </g>
          <g id="Group_15" data-name="Group 15">
            <path id="Path_51" data-name="Path 51" d="M67.676,302.822l5.457,1.764a1.2,1.2,0,0,1,.144,2.219l-5.96,2.819.01.081,8.337,1.657a.577.577,0,1,1-.226,1.131L67.1,310.836a1.2,1.2,0,0,1-.28-2.254l5.96-2.819-.005-.08-5.457-1.764a.577.577,0,1,1,.356-1.1Z" fill="#3c1c16"/>
          </g>
          <g id="Group_16" data-name="Group 16">
            <path id="Path_52" data-name="Path 52" d="M100.614,324.2l4.327,1.4a.948.948,0,0,1,.114,1.76l-4.725,2.235.008.064,6.61,1.314a.457.457,0,1,1-.179.9l-6.61-1.314a.948.948,0,0,1-.222-1.787l4.725-2.235,0-.063-4.327-1.4a.457.457,0,1,1,.283-.87Z" fill="#3c1c16"/>
          </g>
        </g>
        <g id="Group_19" data-name="Group 19">
          <rect id="Rectangle_2" data-name="Rectangle 2" width="30.626" height="28.642" rx="5.704" transform="translate(346.156 261.699)" fill="#fff" stroke="#1f3c88" stroke-miterlimit="10" stroke-width="0.895"/>
          <path id="Path_53" data-name="Path 53" d="M361.469,296l-5.567-5.66h11.133Z" fill="#1f3c88"/>
          <g id="Group_18" data-name="Group 18">
            <path id="Path_54" data-name="Path 54" d="M360.981,284.135a1.019,1.019,0,0,1-.775-.357l-5.567-6.529a1.016,1.016,0,0,1,1.549-1.315l4.615,5.413,7.188-12.921a1.017,1.017,0,0,1,1.779.984l-7.9,14.2a1.019,1.019,0,0,1-.789.517A.938.938,0,0,1,360.981,284.135Z" fill="#1f3c88"/>
          </g>
        </g>
        <g id="Group_25" data-name="Group 25">
          <g id="Group_20" data-name="Group 20">
            <path id="Path_55" data-name="Path 55" d="M77.431,360.13c-8.528,2.015-17.987,4.807-22.031,13.383-3.821,8.1.156,15.968,7.832,19.8,5.194,2.592,24.987,6.96,16.768,16.541-5.31,6.191-14.531,4.276-20.6.621-3.159-1.9-6.038,3.028-2.888,4.927,6.9,4.156,14.833,5.68,22.333,2.244,8.14-3.729,11.344-13.289,5.133-20.282-3.185-3.586-7.682-5.271-12.1-6.789-4.181-1.435-9.655-3.039-11.685-7.436-1.91-4.138.6-8.868,3.779-11.591,4.118-3.524,9.846-4.7,14.978-5.916,3.581-.846,2.065-6.35-1.521-5.5Z" fill="#ee6f57"/>
          </g>
          <g id="Group_21" data-name="Group 21">
            <path id="Path_56" data-name="Path 56" d="M155.814,370.566c9.695.564,10.39-12.031,10.39-12.031s-6.632-3.357-12.847.806Z" fill="#ee6f57"/>
            <path id="Path_57" data-name="Path 57" d="M156.362,366.751c3.861-.061,5.76-4.9,5.76-4.9a6.936,6.936,0,0,0-6.43.042Z" fill="#3c1c16"/>
          </g>
          <g id="Group_22" data-name="Group 22">
            <path id="Path_58" data-name="Path 58" d="M128.434,358.909c-6.722-6.991,2.431-15.694,2.431-15.694s6.865,2.853,7.724,10.272Z" fill="#ee6f57"/>
            <path id="Path_59" data-name="Path 59" d="M130.824,355.985c-2.346-2.833,0-7.2,0-7.2a6.593,6.593,0,0,1,3.951,4.68Z" fill="#3c1c16"/>
          </g>
          <path id="Path_60" data-name="Path 60" d="M142.309,389.834a2.412,2.412,0,0,1-1.871,1.407c-6.556,1.007-8.158-.8-8.158-.8s-5.217,2.9-17.481-.548a2.824,2.824,0,0,1-1.625,1.252c-1.877.614-9.162-.018-13.908-.513-2.868-.3-11.272.37-11.272.37-7.656,0-16.352-2.039-19.716-9.7-4.261-9.693.221-21.312,7.447-28.251,7.71-7.416,18-8.084,27.348-3.225,22.687,11.792,24.4,7.947,30.223,3.058l3.927,29.718a8.059,8.059,0,0,1,3.227,1.914,9.989,9.989,0,0,1,1.291,1.633A3.862,3.862,0,0,1,142.309,389.834Z" fill="#ee6f57"/>
          <path id="Path_61" data-name="Path 61" d="M126.7,358.909c-9.1,5.332-9.4,22.223,8.166,23.872l2.012-7.66Z" fill="#3c1c16" opacity="0.3"/>
          <path id="Path_62" data-name="Path 62" d="M158.2,371.467c-1.846,6.474-4.895,10.182-8.02,12.245a14.49,14.49,0,0,1-8.014,2.444,18.809,18.809,0,0,1-5.666-.882c-6.957-2.182-12.64-8.262-12.64-16.251,0-10.087,7.345-17.819,16.591-17.819C151.034,351.2,161.487,359.92,158.2,371.467Z" fill="#ee6f57"/>
          <path id="Path_63" data-name="Path 63" d="M150.18,383.712a14.49,14.49,0,0,1-8.014,2.444c-.143,0-.281,0-.424-.006a9.989,9.989,0,0,0-1.291-1.633,8.059,8.059,0,0,0-3.227-1.914,7.761,7.761,0,0,1,4.482.179s5.229-2.593,8.463.918Z" fill="#3c1c16" opacity="0.3"/>
          <path id="Path_64" data-name="Path 64" d="M140.308,386.6a3.022,3.022,0,0,0,.526,4.139,1.579,1.579,0,0,0,.923.378h9.118c.436,0,.668-.465.786-1.07a5.127,5.127,0,0,0-1.833-4.86C146.887,382.719,142.968,382.779,140.308,386.6Z" fill="#ee6f57"/>
          <g id="Group_23" data-name="Group 23">
            <path id="Path_65" data-name="Path 65" d="M123.857,381.711a41.364,41.364,0,0,1,5.53.16,36.458,36.458,0,0,1,5.478.91,19.916,19.916,0,0,1,2.663.863,12.724,12.724,0,0,1,2.508,1.308,6.526,6.526,0,0,1,1.974,2.088,4.343,4.343,0,0,1,.465,2.81l-.333-.036a4.108,4.108,0,0,0-.648-2.471,5.863,5.863,0,0,0-1.876-1.771,17.383,17.383,0,0,0-4.965-1.971,44.2,44.2,0,0,0-5.348-1.013c-1.8-.243-3.627-.42-5.447-.544Z" fill="#3c1c16"/>
          </g>
          <g id="Group_24" data-name="Group 24">
            <path id="Path_66" data-name="Path 66" d="M93.424,363.756a11.542,11.542,0,0,1,5.159,2.084,7.481,7.481,0,0,1,1.886,2.128,8.767,8.767,0,0,1,1.016,2.659,12.521,12.521,0,0,1,.217,2.819,19.293,19.293,0,0,1-.35,2.783,28.054,28.054,0,0,1-1.69,5.3c-.36.855-.765,1.689-1.208,2.507l-.17.307-.089.155-.006.01c.04.134-.382-1.129-.2-.593l.02.008.039.016.079.031.632.247c.422.162.851.309,1.28.453a33.5,33.5,0,0,0,5.285,1.249,52.706,52.706,0,0,1,5.453.9,14.331,14.331,0,0,1,2.652.9,4.431,4.431,0,0,1,1.208.788,1.444,1.444,0,0,1,.413.659,1.053,1.053,0,0,1-.1.8l-.3-.159a.812.812,0,0,0-.3-1,4.03,4.03,0,0,0-1.117-.654,14.086,14.086,0,0,0-2.588-.752,52.325,52.325,0,0,0-5.425-.747,31.38,31.38,0,0,1-5.43-1.214c-.442-.144-.883-.291-1.318-.453l-.652-.248-.081-.032-.04-.016-.02-.008c.179.533-.257-.73-.209-.6l0-.009.081-.143.16-.3c.422-.8.805-1.616,1.169-2.444a27.268,27.268,0,0,0,1.684-5.131,18.506,18.506,0,0,0,.357-2.656,12.908,12.908,0,0,0-.146-2.647,7.38,7.38,0,0,0-2.557-4.474,11.482,11.482,0,0,0-4.858-2.206Z" fill="#3c1c16"/>
          </g>
          <path id="Path_67" data-name="Path 67" d="M145.347,366.209a5.025,5.025,0,0,0,2.66,2.582,4.459,4.459,0,0,0,1.838.155c.321-.03.642-.118.973-.165.322-.094.648-.189.99-.265l.164.332c-.3.2-.614.375-.934.552a8.056,8.056,0,0,1-1.047.363,4.29,4.29,0,0,1-2.29-.054,3.749,3.749,0,0,1-1.869-1.357,4.407,4.407,0,0,1-.843-2.047Z" fill="#3c1c16"/>
          <path id="Path_68" data-name="Path 68" d="M134.945,361.729a5.024,5.024,0,0,0,2.451,2.78,4.454,4.454,0,0,0,1.821.3c.322,0,.649-.067.983-.089.328-.069.66-.139,1.007-.187l.138.344c-.313.173-.642.326-.974.478a8.04,8.04,0,0,1-1.072.281,4.287,4.287,0,0,1-2.279-.231,3.746,3.746,0,0,1-1.758-1.5,4.4,4.4,0,0,1-.682-2.107Z" fill="#3c1c16"/>
        </g>
        <g id="Group_27" data-name="Group 27">
          <path id="Path_69" data-name="Path 69" d="M355.834,215.143h10.1l-8.065-52.079h-10.1Z" fill="#8cbfbe"/>
          <path id="Path_70" data-name="Path 70" d="M365.942,215.143h10.1l-8.065-52.079h-10.1Z" fill="#c6eae9"/>
          <g id="Group_26" data-name="Group 26">
            <rect id="Rectangle_3" data-name="Rectangle 3" width="37.272" height="23.916" transform="translate(379.838 191.219)" fill="#8cbfbe"/>
            <rect id="Rectangle_4" data-name="Rectangle 4" width="15.761" height="4.188" transform="translate(390.593 198.989)" fill="#fff"/>
          </g>
          <rect id="Rectangle_5" data-name="Rectangle 5" width="17.539" height="67.811" transform="translate(330.23 147.323)" fill="#c6eae9"/>
          <rect id="Rectangle_6" data-name="Rectangle 6" width="104.965" height="7.53" transform="translate(320.785 215.135)" fill="#8cbfbe"/>
        </g>
        <g id="Group_30" data-name="Group 30">
          <g id="Group_29" data-name="Group 29">
            <rect id="Rectangle_7" data-name="Rectangle 7" width="67.321" height="44.197" rx="7.369" transform="translate(75.613 135.542)" fill="#c6eae9"/>
            <g id="Group_28" data-name="Group 28">
              <rect id="Rectangle_8" data-name="Rectangle 8" width="50.286" height="4.178" transform="translate(84.13 146.635)" fill="#8cbfbe"/>
              <rect id="Rectangle_9" data-name="Rectangle 9" width="50.286" height="4.178" transform="translate(84.13 155.552)" fill="#fff" opacity="0.8"/>
              <rect id="Rectangle_10" data-name="Rectangle 10" width="50.286" height="4.178" transform="translate(84.13 164.469)" fill="#fff" opacity="0.8"/>
            </g>
          </g>
          <path id="Path_71" data-name="Path 71" d="M92.627,224.464l-9.558-7.456h19.115Z" fill="#fbc343"/>
          <rect id="Rectangle_11" data-name="Rectangle 11" width="67.321" height="44.197" rx="7.369" transform="translate(44.819 172.818)" fill="#fbc343"/>
        </g>
        <text id="RFEFER_A_FRIEND" data-name="RFEFER A
FRIEND" transform="translate(79.512 191.974)" fill="#fff" font-size="12" font-family="SegoeUI, Segoe UI"><tspan x="-24.621" y="0">RFEFER A</tspan><tspan x="-19.846" y="14">FRIEND</tspan></text>
      </g>
    </g>
    <g id="Vector_Smart_Object-2" data-name="Vector Smart Object" transform="translate(377.838 321.258)" clip-path="url(#clip-path-2)">
      <g id="Group_92" data-name="Group 92">
        <path id="Path_72" data-name="Path 72" d="M96.892,60.862a12.205,12.205,0,0,0-.053-9.542c-2.047-4.837-6.569-6.927-10.1-4.668A7.508,7.508,0,0,0,84.025,49.9a9.893,9.893,0,0,0-8.1,4.182c-4.272,5.739-3.438,15.229,1.864,21.2s13.064,6.151,17.337.412C98.073,71.738,98.591,66,96.892,60.862Z" fill="#f78690"/>
        <g id="Group_91" data-name="Group 91" clip-path="url(#clip-path-3)">
          <g id="Group_90" data-name="Group 90">
            <path id="Path_73" data-name="Path 73" d="M82.973,68.8a3.7,3.7,0,0,1-1.618,2.059c-1.249.792-2.565.723-2.937-.165-.43-1.025.4-1.958.963-2.582a3.014,3.014,0,0,0,.744-1.307A9.727,9.727,0,0,0,80.4,64.95c.019-.255.029-.512.055-.766a2.233,2.233,0,0,1,.076-.347l2.038,2.906.144.726a1.109,1.109,0,0,1,.228.343A1.555,1.555,0,0,1,82.973,68.8Z" fill="#0e1a30"/>
            <g id="Group_35" data-name="Group 35">
              <ellipse id="Ellipse_1" data-name="Ellipse 1" cx="2.716" cy="3.339" rx="2.716" ry="3.339" transform="matrix(0.869, -0.494, 0.494, 0.869, 90.289, 51.786)" fill="#783333"/>
              <g id="Group_34" data-name="Group 34" clip-path="url(#clip-path-4)">
                <g id="Group_32" data-name="Group 32">
                  <path id="Path_74" data-name="Path 74" d="M96.923,56.142a3.957,3.957,0,0,1-.58-.043,4.353,4.353,0,0,1-2.914-1.864,5.358,5.358,0,0,1-.933-3.609,4.37,4.37,0,0,1,4.794-4.193,5.117,5.117,0,0,1,2.243,8.706A3.942,3.942,0,0,1,96.923,56.142Zm-.207-9.57a4.28,4.28,0,0,0-4.072,4.076,5.147,5.147,0,0,0,.9,3.468,4.212,4.212,0,0,0,2.819,1.8,3.793,3.793,0,0,0,3.087-.928,4.689,4.689,0,0,0,1.542-3.106h0a4.743,4.743,0,0,0-3.717-5.271A3.793,3.793,0,0,0,96.716,46.572Z" fill="#2c2a2b"/>
                </g>
                <g id="Group_33" data-name="Group 33">
                  <path id="Path_75" data-name="Path 75" d="M95.752,53.527a2.161,2.161,0,0,1-.312-.023A2.348,2.348,0,0,1,93.869,52.5a2.9,2.9,0,0,1-.5-1.951,2.638,2.638,0,0,1,.867-1.749,2.113,2.113,0,0,1,1.721-.518,2.348,2.348,0,0,1,1.571,1.006,2.9,2.9,0,0,1,.5,1.952,2.636,2.636,0,0,1-.867,1.748A2.127,2.127,0,0,1,95.752,53.527Zm-.113-5.089a2,2,0,0,0-1.323.508,2.448,2.448,0,0,0-.805,1.622,2.687,2.687,0,0,0,.469,1.81,2.205,2.205,0,0,0,1.477.944,1.985,1.985,0,0,0,1.617-.486,2.449,2.449,0,0,0,.805-1.622h0a2.689,2.689,0,0,0-.469-1.811,2.206,2.206,0,0,0-1.477-.944A2.016,2.016,0,0,0,95.64,48.438Z" fill="#2c2a2b"/>
                </g>
              </g>
            </g>
            <g id="Group_36" data-name="Group 36">
              <path id="Path_76" data-name="Path 76" d="M80.888,76.561c-.023.05-1,4.272-1.994,8.609-.369,1.614-.742,3.24-1.071,4.676-.074.322-.236.593-.3.9-.514,2.409-1.715,3.856-3.437,3.035l-3.239-1.723s5.913-19.871,5.913-19.871,1.968-1.829,3.2-1.252C81.623,71.729,81.862,74.725,80.888,76.561Z" fill="#fff"/>
            </g>
            <path id="Path_77" data-name="Path 77" d="M78.894,85.171c-.369,1.614-.742,3.24-1.071,4.676a4.747,4.747,0,0,1-.3.9,20.384,20.384,0,0,0-.977-5.514l1.413-.924Z" fill="#0e1a30"/>
            <path id="Path_78" data-name="Path 78" d="M85.376,67.383c.178.1.282.161.282.161l-.826,3.727L82.4,72.356l-2.769-.5a3.754,3.754,0,0,0,1.336-4.3s0-.008,0-.012a3.149,3.149,0,0,0-.188-.607c-.064-.223-.117-.454-.168-.685a14.7,14.7,0,0,1,.514-7.681l.03-.074c.081-.223.289-.8.527-1.358.252-.59.537-1.147.735-1.209.164-.054.3.239.446.475.091.149.185.273.285.273a1.47,1.47,0,0,1,.92.359c.037.029.074.062.111.091,1.051.97,1.792,3.38,1.792,6.2A13.257,13.257,0,0,1,85.376,67.383Z" fill="#783333"/>
            <path id="Path_79" data-name="Path 79" d="M93.312,73.06a11.926,11.926,0,0,0-2.373,7.829l.212,3.587.007.07q.025.328.05.669c.023.305.044.652.07,1.027.168,0,.628,8.163,1.524,12.22q-4.29.093-8.584-.161c-.339.169-.691.33-1.054.475a9.6,9.6,0,0,1-6.712-.19,3.756,3.756,0,0,1,.445-2.323A8.21,8.21,0,0,0,78.045,93.1c.159-1.46.241-2.935.259-4.423-.064-.487-.127-.994-.195-1.515A.456.456,0,0,0,78.1,87.1a.356.356,0,0,0-.04-.016,3.151,3.151,0,0,1-1.829-2.823v0a8.949,8.949,0,0,1,.775-3.05c.013-.033.03-.062.044-.091.071-.153.148-.3.228-.454,0,0,0,0,0,0,.2-.376.426-.759.671-1.139v0c.07-2.469-1.282-6.6-1.21-7.252l.015-.058a.979.979,0,0,1,.416-.556c1.158-.619,2.549-1.209,3.449-1.6l4.016,6.281,5.866-5.811a1.854,1.854,0,0,1,.705-.656s3.051,1.61,3.316,2.175C94.662,72.457,94.155,72.12,93.312,73.06Z" fill="#e74a39"/>
            <path id="Path_80" data-name="Path 80" d="M88.625,53.117c1.166,1.574.719,4.409-1,6.333s-4.056,2.207-5.222.633-.718-4.41,1-6.334S87.459,51.543,88.625,53.117Z" fill="#783333"/>
            <path id="Path_81" data-name="Path 81" d="M92.51,83.854l-.01.087c-.037.277-.074.545-.111.821C92.241,85.893,91.2,93.71,91.2,93.71c-.628.619-1.964,3.082-4.354,3.1-1.176-3.338-.824-8.7.393-8.823,4.22-.432,3.53-7.435,3.577-7.522l1.626,2.949Z" fill="#0e1a30"/>
            <path id="Path_82" data-name="Path 82" d="M90.457,54.359c1.1.636,1.358,2.832.567,4.905s-2.326,3.237-3.43,2.6-1.358-2.832-.567-4.905S89.353,53.723,90.457,54.359Z" fill="#783333"/>
            <path id="Path_83" data-name="Path 83" d="M86.541,71.407a7.73,7.73,0,0,1-5.086-1.577c-.05-.046-.1-.091-.144-.14l-.786.392.03.041,4.084,6.536,6.176-5.832A30.718,30.718,0,0,1,86.541,71.407Z" fill="#fff"/>
            <path id="Path_84" data-name="Path 84" d="M93.1,98.572a.671.671,0,0,1-.346.5,2.535,2.535,0,0,1-.379.215c-1.3.611-4.213,1.04-7.6,1.04-.591,0-1.168-.012-1.725-.037a18.009,18.009,0,0,1-5.878-1c-.466-.219-.725-.462-.725-.718,0-.338.456-.656,1.245-.924a22.12,22.12,0,0,1,5.881-.813c.393-.012.792-.021,1.2-.021a24.687,24.687,0,0,1,7.083.834c.158.054.3.111.433.165C92.815,98.043,93.1,98.3,93.1,98.572Z" fill="#0e1a30"/>
            <path id="Path_85" data-name="Path 85" d="M89.784,70.082,89,71.118a10.215,10.215,0,0,1-2.457.289,7.492,7.492,0,0,1-5.23-1.717l.44-.219a2.836,2.836,0,0,0,1.4-1.927,3.513,3.513,0,0,0,.091-.8V61.13h4.726v5.935a3.146,3.146,0,0,0,1.152,2.518Z" fill="#ffb287"/>
            <path id="Path_86" data-name="Path 86" d="M86.946,64.565a6.127,6.127,0,0,1-3.8,2.979,3.532,3.532,0,0,0,.091-.8V65.113Z" fill="#0e1a30"/>
            <g id="Group_37" data-name="Group 37">
              <path id="Path_87" data-name="Path 87" d="M94.342,93.475l-1.866-1.692a9.043,9.043,0,0,1-.742-2.1,29.021,29.021,0,0,1-.527-4.486q-.025-.34-.05-.668l-.007-.07-.212-3.586c-.211-2.3.4-6.153,2.059-8.042.81-.925,1.4-.964,1.529-.811.118.248,1.893,6.183,2.994,17.891A2.987,2.987,0,0,1,94.342,93.475Z" fill="#fff"/>
            </g>
            <path id="Rectangle_12" data-name="Rectangle 12" d="M0,0H6.2a0,0,0,0,1,0,0V7.873a3.338,3.338,0,0,1-3.338,3.338h0A2.862,2.862,0,0,1,0,8.349V0A0,0,0,0,1,0,0Z" transform="matrix(0.993, 0.12, -0.12, 0.993, 82.567, 54.163)" fill="#ffb287"/>
            <path id="Path_88" data-name="Path 88" d="M83.915,57.747c-.13-.044-.293-.117-.44-.161a3.337,3.337,0,0,0-.468-.111,1.964,1.964,0,0,0-.472-.03,1.152,1.152,0,0,0-.5.15l-.007,0a.03.03,0,0,1-.043-.019.05.05,0,0,1,0-.026.959.959,0,0,1,.415-.61,1.176,1.176,0,0,1,.634-.2,1.4,1.4,0,0,1,.633.128,1.251,1.251,0,0,1,.546.476.31.31,0,0,1-.036.375.186.186,0,0,1-.191.048Z" fill="#2c2a2b"/>
            <path id="Path_89" data-name="Path 89" d="M85.671,57.454a1.011,1.011,0,0,1,.663-.116,1.47,1.47,0,0,1,.61.242,1.509,1.509,0,0,1,.489.534,1.161,1.161,0,0,1,.142.776.032.032,0,0,1-.039.029.033.033,0,0,1-.018-.015l0-.007a1.475,1.475,0,0,0-.387-.414,2.178,2.178,0,0,0-.431-.239,3.407,3.407,0,0,0-.457-.165c-.148-.043-.319-.07-.451-.1l-.069-.017a.272.272,0,0,1-.168-.316A.266.266,0,0,1,85.671,57.454Z" fill="#2c2a2b"/>
            <g id="Group_38" data-name="Group 38">
              <path id="Path_90" data-name="Path 90" d="M86.786,60.117a.078.078,0,0,1-.071-.063,1.538,1.538,0,0,0-.385-.673.551.551,0,0,0-.133-.089.447.447,0,0,0-.383-.017.8.8,0,0,0-.28.208.169.169,0,0,1-.057.049.073.073,0,0,1-.094-.058.1.1,0,0,1,.046-.114c-.007,0,0,0,.007-.013a.921.921,0,0,1,.33-.243.568.568,0,0,1,.483.019.672.672,0,0,1,.166.11,1.707,1.707,0,0,1,.441.766.1.1,0,0,1-.048.114A.057.057,0,0,1,86.786,60.117Z" fill="#2c2a2b"/>
            </g>
            <g id="Group_39" data-name="Group 39">
              <path id="Path_91" data-name="Path 91" d="M83.984,59.7a.077.077,0,0,1-.071-.063,1.542,1.542,0,0,0-.386-.673.543.543,0,0,0-.132-.088.444.444,0,0,0-.383-.017.793.793,0,0,0-.28.208.176.176,0,0,1-.057.049.072.072,0,0,1-.093-.059.1.1,0,0,1,.046-.114c-.007,0,0,0,.007-.013a.921.921,0,0,1,.33-.243.568.568,0,0,1,.483.019.672.672,0,0,1,.166.11,1.7,1.7,0,0,1,.441.766.1.1,0,0,1-.048.114A.062.062,0,0,1,83.984,59.7Z" fill="#2c2a2b"/>
            </g>
            <path id="Path_92" data-name="Path 92" d="M83.663,59.258c-.022.228-.188.392-.371.365A.4.4,0,0,1,83,59.16c.022-.228.188-.392.371-.365A.4.4,0,0,1,83.663,59.258Z" fill="#0e1a30"/>
            <path id="Path_93" data-name="Path 93" d="M86.42,59.667c-.022.228-.188.392-.371.365a.4.4,0,0,1-.29-.463c.022-.228.188-.392.371-.365A.4.4,0,0,1,86.42,59.667Z" fill="#0e1a30"/>
            <g id="Group_40" data-name="Group 40">
              <path id="Path_94" data-name="Path 94" d="M84.727,61.365a1.589,1.589,0,0,1-.748-.145c-.058-.044-.087-.066.42-2.677a.074.074,0,0,1,.089-.067.094.094,0,0,1,.055.11c-.166.855-.422,2.223-.451,2.5a1.836,1.836,0,0,0,.667.1h0a.093.093,0,0,1,0,.182Z" fill="#a55930"/>
            </g>
            <g id="Group_41" data-name="Group 41">
              <path id="Path_95" data-name="Path 95" d="M87.638,88.106a6.343,6.343,0,0,1-2.217-.373c-1.79-.958-2.313-2.678-1.519-4.978a.07.07,0,0,1,.1-.048.1.1,0,0,1,.039.12c-.768,2.223-.284,3.817,1.436,4.737a6.244,6.244,0,0,0,2.278.36.091.091,0,0,1,.075.09.085.085,0,0,1-.073.093Z" fill="#2c2a2b"/>
            </g>
            <g id="Group_42" data-name="Group 42">
              <path id="Path_96" data-name="Path 96" d="M80.257,87.648a6.341,6.341,0,0,1-2.217-.374c-1.79-.957-2.313-2.677-1.519-4.978a15.2,15.2,0,0,1,1.726-3.5.065.065,0,0,1,.1,0,.106.106,0,0,1,0,.129,15.344,15.344,0,0,0-1.7,3.443c-.768,2.223-.284,3.817,1.436,4.737a6.2,6.2,0,0,0,2.278.36h0a.083.083,0,0,1,.074.09.084.084,0,0,1-.073.093Z" fill="#2c2a2b"/>
            </g>
            <g id="Group_43" data-name="Group 43">
              <path id="Path_97" data-name="Path 97" d="M84.8,62.8a1.485,1.485,0,0,1-.538-.107l-.026-.01-.031-.011a.094.094,0,0,1-.058-.106c.007-.048.043-.082.082-.074a.451.451,0,0,1,.05.017l.026.01a1.181,1.181,0,0,0,.968-.008,1.166,1.166,0,0,0,.532-.6.074.074,0,0,1,.1-.05.092.092,0,0,1,.041.111l0,.014a1.317,1.317,0,0,1-.614.7A1.21,1.21,0,0,1,84.8,62.8Z" fill="#a55930"/>
            </g>
            <g id="Group_44" data-name="Group 44">
              <path id="Path_98" data-name="Path 98" d="M86.123,62.357a.064.064,0,0,1-.046-.02.407.407,0,0,1-.057-.064,1.083,1.083,0,0,1-.178-.3,3,3,0,0,1-.128-.367l-.017-.056a.1.1,0,0,1,.041-.119.07.07,0,0,1,.1.05l.019.063a2.874,2.874,0,0,0,.119.344.946.946,0,0,0,.153.26.326.326,0,0,0,.042.048.106.106,0,0,1,.012.128A.07.07,0,0,1,86.123,62.357Z" fill="#a55930"/>
            </g>
            <path id="Path_99" data-name="Path 99" d="M84.628,56.706c-.057.054-.117.116-.188.181-.087.078-.178.161-.268.239a4.843,4.843,0,0,1-3.025,1.37c.081-.223.289-.8.527-1.358a9.011,9.011,0,0,1,1.182-.735c.04-.025.077-.041.111-.058a1.317,1.317,0,0,1,.782-.132A1.534,1.534,0,0,1,84.628,56.706Z" fill="#0e1a30"/>
            <path id="Path_100" data-name="Path 100" d="M88.7,53.955l-2.264-.9-1,.665c-.017-.02-.032-.04-.05-.059l.417-1.459-2,.472a9.72,9.72,0,0,0-3.176,1.051,2.459,2.459,0,0,0-1.134,2.53c.427,1.255,1.558,1.888,3.393,1.4a4.856,4.856,0,0,0,1.9-.981l.022-.019c.213-.183,1.941-1.6,2.994-.5,1.124,1.179-.024,4.252-.024,4.252s.987.928,1.025.8,1.9-4.776,1.9-4.776Z" fill="#783333"/>
            <path id="Path_101" data-name="Path 101" d="M92.876,75.484c.034.153.185.557.285.9H91.808a11.426,11.426,0,0,1-.326-2.067,11.4,11.4,0,0,0-.074,2.067H88.945a11.2,11.2,0,0,1-1.027-4.028,17.962,17.962,0,0,0,.057,4.028H86.243a13.912,13.912,0,0,1,.594-7.957,13.039,13.039,0,0,0,.923-4.4l-.077-3.6,3.8-3.326a25.081,25.081,0,0,0,.129,3.685,25.544,25.544,0,0,0,1.166,4.371c.077.231.158.462.228.7.638,2.059-.094,3.689-.316,5.724A13.046,13.046,0,0,0,92.876,75.484Z" fill="#783333"/>
            <path id="Path_102" data-name="Path 102" d="M88.869,62c-.58.56-1.3.623-1.608.141a1.651,1.651,0,0,1,.493-1.886c.58-.56,1.3-.623,1.608-.141A1.652,1.652,0,0,1,88.869,62Z" fill="#ffb287"/>
            <path id="Path_103" data-name="Path 103" d="M92.889,70.251a6.044,6.044,0,0,1-.171.714,5.961,5.961,0,0,1-.242.656c.06-.273.128-.533.2-.78C92.745,70.635,92.812,70.437,92.889,70.251Z" fill="#783333"/>
            <g id="Group_45" data-name="Group 45">
              <path id="Path_104" data-name="Path 104" d="M88.356,55.038A.07.07,0,0,1,88.3,55a.106.106,0,0,1,.013-.128c.057-.055,1.408-1.333,2.346-.483a.106.106,0,0,1,.016.128.065.065,0,0,1-.1.019c-.848-.768-2.154.468-2.167.48A.064.064,0,0,1,88.356,55.038Z" fill="#2c2a2b"/>
            </g>
            <g id="Group_46" data-name="Group 46">
              <path id="Path_105" data-name="Path 105" d="M88.02,60.135a.075.075,0,0,1-.067-.052.1.1,0,0,1,.033-.12c.01-.008.025-.025.047-.048a1.238,1.238,0,0,1,1.617-.353.1.1,0,0,1,.036.121.069.069,0,0,1-.1.043,1.109,1.109,0,0,0-1.457.326.406.406,0,0,1-.078.073A.061.061,0,0,1,88.02,60.135Z" fill="#2c2a2b"/>
            </g>
            <g id="Group_47" data-name="Group 47">
              <path id="Path_106" data-name="Path 106" d="M90.837,72.447a.08.08,0,0,1-.073-.076,6.978,6.978,0,0,1,.357-3.21,7.37,7.37,0,0,0,.407-2.614,10.243,10.243,0,0,0-1.337-4.138,1.84,1.84,0,0,1-.19-.4.091.091,0,0,1,.06-.106.076.076,0,0,1,.086.071,3.283,3.283,0,0,0,.169.338,10.443,10.443,0,0,1,1.361,4.227,7.547,7.547,0,0,1-.416,2.686,6.7,6.7,0,0,0-.35,3.118.091.091,0,0,1-.06.1Z" fill="#2c2a2b"/>
            </g>
            <path id="Path_107" data-name="Path 107" d="M93.977,104.358h-18.4l1.594-5.068.52-1.643a22.12,22.12,0,0,1,5.881-.813c.393-.012.792-.021,1.2-.021a24.687,24.687,0,0,1,7.083.834l.517,1.643Z" fill="#275f91"/>
            <path id="Path_108" data-name="Path 108" d="M90.61,119.447c-2.967.632-6.233-4.952-7.291-12.472-.127-.887-.215-1.762-.268-2.616a30.357,30.357,0,0,1,0-4.065,20.647,20.647,0,0,1,.524-3.459c.393-.012.792-.021,1.2-.021a24.687,24.687,0,0,1,7.083.834c.158.054.3.111.433.165q.247.607.463,1.263a31.313,31.313,0,0,1,1.3,5.609C95.121,112.2,93.577,118.811,90.61,119.447Z" fill="#275f91"/>
            <path id="Path_109" data-name="Path 109" d="M96.337,94.779a5.641,5.641,0,0,0,1.186-3.663c-.207-3.177-2.958-5.136-5.327-3.5-1.817.924-4,1.86-4,1.869-.1.01-.1.13-.206.166-1.849.649-1.964,4.822-1.034,8.511.852,3.382,2.592,6.664,4.3,6.688a1.343,1.343,0,0,0,.465-.077,1.9,1.9,0,0,0,1.054-1.1A18.917,18.917,0,0,0,94.1,98.642a7.821,7.821,0,0,1,1.806-3.381,3.943,3.943,0,0,0,.423-.469A.04.04,0,0,0,96.337,94.779Z" fill="#fff"/>
            <g id="Group_48" data-name="Group 48">
              <path id="Path_110" data-name="Path 110" d="M87.855,73.187a.083.083,0,0,1-.074-.087,7.483,7.483,0,0,1,.823-3.6,8.727,8.727,0,0,0,.905-4.457.086.086,0,0,1,.069-.1c.05-.006.076.035.079.085a8.9,8.9,0,0,1-.922,4.554,7.306,7.306,0,0,0-.806,3.51.086.086,0,0,1-.071.1Z" fill="#2c2a2b"/>
            </g>
            <g id="Group_49" data-name="Group 49">
              <path id="Path_111" data-name="Path 111" d="M81.176,57.123a2.241,2.241,0,0,1-.571-.075,1.675,1.675,0,0,1-1.243-1.507c0-.05.04-.092.076-.088a.085.085,0,0,1,.072.094,1.5,1.5,0,0,0,1.126,1.323c1.258.33,2.177-.519,3.15-1.417.855-.789,1.741-1.6,2.871-1.547a.086.086,0,0,1,.071.095.087.087,0,0,1-.077.087c-1.074-.058-1.942.74-2.776,1.51A4.3,4.3,0,0,1,81.176,57.123Z" fill="#2c2a2b"/>
            </g>
            <g id="Group_50" data-name="Group 50">
              <path id="Path_112" data-name="Path 112" d="M89.563,57.134a.082.082,0,0,1-.074-.082,1.384,1.384,0,0,0-.41-.944c-.484-.446-1.372-.523-2.639-.228l-.1.023a.078.078,0,0,1-.085-.075.091.091,0,0,1,.062-.1l.1-.022c.488-.114,1.974-.46,2.756.261a1.571,1.571,0,0,1,.469,1.073.089.089,0,0,1-.067.1Z" fill="#2c2a2b"/>
            </g>
            <path id="Path_113" data-name="Path 113" d="M75.72,86.934l-3.605-2.8-5.9-4.586c-.437-.339-2.387-1.931-2.387-1.931-1.053.093-2.735,5.3-3.173,7.56-.387,2-.983,4.8-.137,6.729a1.857,1.857,0,0,0,2.341.994,13.263,13.263,0,0,0,1.871-.781,3.37,3.37,0,0,1,2.052-.179l6.764,2.281a2.8,2.8,0,0,0,3.331-1.472C77.616,91.353,77.118,87.985,75.72,86.934Z" fill="#fff"/>
            <path id="Path_114" data-name="Path 114" d="M64.732,85.328c-.01.153-.023.305-.04.462-.453,4.4-2.178,7.359-3.491,6.913s-1.417-3.595-.567-7.557c.191-.958.409-1.894.638-2.765a17.23,17.23,0,0,1,1.447-3.958c.312-.532.621-.842.92-.85.463-.021.829.866,1.031,2.278A25.037,25.037,0,0,1,64.732,85.328Z" fill="#0e1a30"/>
            <path id="Path_115" data-name="Path 115" d="M91.093,104.824c-1.168.194-3.028-2.307-4.206-6.525a15.694,15.694,0,0,1-.587-4.441,6.567,6.567,0,0,1,.987-3.781,1.617,1.617,0,0,1,.675-.524,1.227,1.227,0,0,1,.413-.074h0c1.034,0,1.92,1.481,2.528,3.83a23.985,23.985,0,0,1,.5,2.542C92.053,99.95,93.426,104.436,91.093,104.824Z" fill="#0e1a30"/>
            <g id="Group_51" data-name="Group 51">
              <path id="Path_116" data-name="Path 116" d="M74.951,88a.08.08,0,0,1-.073-.074,5.623,5.623,0,0,0-2.731-3.664c-.037-.024-.062-.04-.072-.048a.1.1,0,0,1-.023-.126.067.067,0,0,1,.1-.028l.062.041a5.8,5.8,0,0,1,2.808,3.791.092.092,0,0,1-.059.106Z" fill="#2c2a2b"/>
            </g>
            <g id="Group_52" data-name="Group 52">
              <path id="Path_117" data-name="Path 117" d="M91.318,87.35a.082.082,0,0,1-.074-.083l-.5-6.792c0-.036,0-.064,0-.1a2.733,2.733,0,0,1,1.024-2.438.066.066,0,0,1,.1.035.1.1,0,0,1-.028.124,2.554,2.554,0,0,0-.949,2.277,1.1,1.1,0,0,1,0,.11l.5,6.77a.088.088,0,0,1-.067.1Z" fill="#2c2a2b"/>
            </g>
            <g id="Group_53" data-name="Group 53">
              <path id="Path_118" data-name="Path 118" d="M90.021,76.4a.068.068,0,0,1-.057-.033,5.97,5.97,0,0,1-.243-5.483.067.067,0,0,1,.1-.031.1.1,0,0,1,.025.125,5.74,5.74,0,0,0,.229,5.272.106.106,0,0,1-.009.128A.066.066,0,0,1,90.021,76.4Z" fill="#2c2a2b"/>
            </g>
            <g id="Group_54" data-name="Group 54">
              <path id="Path_119" data-name="Path 119" d="M87.906,89.781a.076.076,0,0,1-.069-.058.1.1,0,0,1,.042-.118l3.318-1.6c1.758-.712,3.584-1.018,5.059,1.524a.105.105,0,0,1-.017.127.066.066,0,0,1-.1-.021c-1.419-2.446-3.188-2.147-4.888-1.459l-3.314,1.593A.065.065,0,0,1,87.906,89.781Z" fill="#2c2a2b"/>
            </g>
            <g id="Group_55" data-name="Group 55">
              <path id="Path_120" data-name="Path 120" d="M92.879,103.567a.065.065,0,0,1-.043-.017.1.1,0,0,1-.017-.127c1.048-1.782,1.087-4.2,1.116-5.967a5.964,5.964,0,0,1,.257-2.284.066.066,0,0,1,.1-.02.106.106,0,0,1,.016.128,6.01,6.01,0,0,0-.228,2.18c-.029,1.79-.069,4.242-1.144,6.07A.071.071,0,0,1,92.879,103.567Z" fill="#2c2a2b"/>
            </g>
            <g id="Group_56" data-name="Group 56">
              <path id="Path_121" data-name="Path 121" d="M64.53,92.295a.076.076,0,0,1-.07-.06.1.1,0,0,1,.045-.117c.021-.009.064-.036.127-.073a5.059,5.059,0,0,1,4.212-.778.1.1,0,0,1,.053.111.073.073,0,0,1-.091.064,4.949,4.949,0,0,0-4.109.766c-.07.042-.118.071-.142.081A.06.06,0,0,1,64.53,92.295Z" fill="#2c2a2b"/>
            </g>
            <g id="Group_57" data-name="Group 57">
              <path id="Path_122" data-name="Path 122" d="M96.932,84.68a.076.076,0,0,1-.07-.061,18.473,18.473,0,0,0-2.111-4.02l-.049-.074a.107.107,0,0,1,.012-.128.065.065,0,0,1,.1.014l.048.075A18.617,18.617,0,0,1,97,84.558a.1.1,0,0,1-.045.117A.074.074,0,0,1,96.932,84.68Z" fill="#2c2a2b"/>
            </g>
            <g id="Group_58" data-name="Group 58">
              <path id="Path_123" data-name="Path 123" d="M91.13,88.262h-.011a.09.09,0,0,1-.062-.1,4.762,4.762,0,0,1,1.7-2.36,3.011,3.011,0,0,0,.359-.354.067.067,0,0,1,.1-.031.1.1,0,0,1,.025.125,2.181,2.181,0,0,1-.4.406c-.538.491-1.538,1.406-1.639,2.24A.081.081,0,0,1,91.13,88.262Z" fill="#2c2a2b"/>
            </g>
            <g id="Group_59" data-name="Group 59">
              <path id="Path_124" data-name="Path 124" d="M72.968,84.843a.066.066,0,0,1-.026-.005.1.1,0,0,1-.043-.116,2.708,2.708,0,0,1,2.407-1.3h0a.093.093,0,0,1,0,.182,2.6,2.6,0,0,0-2.27,1.181A.077.077,0,0,1,72.968,84.843Z" fill="#2c2a2b"/>
            </g>
            <g id="Group_60" data-name="Group 60">
              <path id="Path_125" data-name="Path 125" d="M77.957,79.451h0a.086.086,0,0,1-.069-.1c.08-1.464-.478-2.47-.894-2.606a.1.1,0,0,1-.053-.111.073.073,0,0,1,.091-.064c.549.179,1.084,1.345,1,2.794A.083.083,0,0,1,77.957,79.451Z" fill="#2c2a2b"/>
            </g>
            <path id="Path_126" data-name="Path 126" d="M86.921,104.391l-.282.652-.715,1.659-6.4,14.862L77.3,126.715l.1,1.886,1.839,33.5-1.473,1.023L65.232,162.1l2.018-36.752a10.3,10.3,0,0,1,.722-3.273l9.248-22.918Z" fill="#275f91"/>
            <path id="Path_127" data-name="Path 127" d="M79.522,121.564,77.3,126.715l.1,1.886-.02-.008a11.276,11.276,0,0,0-.634-3.876c.453-.268,1.68-.624,5.2-11.257a21.507,21.507,0,0,0,1.18-7.588l2.786.83Z" fill="#0e1a30"/>
            <path id="Path_128" data-name="Path 128" d="M97.4,162.225a.272.272,0,0,1,.023.091c0,.788-3.129,1.432-6.986,1.432-3.676,0-6.683-.582-6.959-1.321h-.04L83.8,124.61l-.819-21.292L94.4,109.442l-.064,1.6-.01.239c0,.037,0,.074,0,.116l-.023.549v.02l-.463,11.457a21.8,21.8,0,0,0,.087,3l.242,2.48a.039.039,0,0,1,0,.017l3.256,33.3Z" fill="#275f91"/>
            <g id="Group_61" data-name="Group 61">
              <path id="Path_129" data-name="Path 129" d="M83.585,119.031a.084.084,0,0,1-.074-.088c-.082-3.375-.329-12.236-.484-12.7-.182-.539-1.24-1.138-1.25-1.144a.1.1,0,0,1-.037-.121.069.069,0,0,1,.1-.045c.046.026,1.122.635,1.326,1.24.2.587.483,12.265.5,12.762a.085.085,0,0,1-.072.094Z" fill="#2c2a2b"/>
            </g>
            <g id="Group_62" data-name="Group 62">
              <path id="Path_130" data-name="Path 130" d="M83.064,102.237a.083.083,0,0,1-.074-.088c-.013-.438-.023-.954-.031-1.533-.016-1.334,0-2.851.014-3.763a.076.076,0,1,1,.148,0c-.018.91-.03,2.424-.014,3.756.007.578.017,1.093.031,1.53a.086.086,0,0,1-.072.094Z" fill="#2c2a2b"/>
            </g>
            <g id="Group_63" data-name="Group 63">
              <path id="Path_131" data-name="Path 131" d="M76.753,100.4a.093.093,0,0,1,0-.182h.1c.558,0,1.569-.024,2.224-.037l.206,0,.354-.011.4-3.07a.079.079,0,0,1,.085-.075.091.091,0,0,1,.061.1l-.413,3.145a.081.081,0,0,1-.071.077l-.416.012-.207,0c-.655.013-1.667.033-2.226.037Z" fill="#2c2a2b"/>
            </g>
            <g id="Group_64" data-name="Group 64">
              <path id="Path_132" data-name="Path 132" d="M89.619,100.4c-.734,0-2.531-.042-2.955-.052a.081.081,0,0,1-.072-.077l-.45-3.422a.091.091,0,0,1,.061-.1.078.078,0,0,1,.085.075l.44,3.347c1.24.029,3.064.065,3.173.046.036-.009.078.026.085.075a.09.09,0,0,1-.058.1A2.984,2.984,0,0,1,89.619,100.4Z" fill="#2c2a2b"/>
            </g>
            <g id="Group_65" data-name="Group 65">
              <path id="Path_133" data-name="Path 133" d="M77.572,131.725a.082.082,0,0,1-.074-.085c-.067-1.23-.127-2.224-.185-3.04a11.309,11.309,0,0,0-.626-3.84c-.037-.091-.076-.176-.119-.265a.1.1,0,0,1,.026-.125.067.067,0,0,1,.1.032c.044.093.086.181.123.274a11.451,11.451,0,0,1,.642,3.908c.058.817.118,1.813.185,3.044a.086.086,0,0,1-.069.1Z" fill="#2c2a2b"/>
            </g>
            <g id="Group_66" data-name="Group 66">
              <path id="Path_134" data-name="Path 134" d="M69.835,124.057a.06.06,0,0,1-.031-.008c-1.2-.669-1.781-.647-2.057-.511a.4.4,0,0,0-.208.206.072.072,0,0,1-.1.052.1.1,0,0,1-.044-.115.545.545,0,0,1,.279-.306c.3-.157.924-.2,2.186.508A.1.1,0,0,1,69.9,124,.075.075,0,0,1,69.835,124.057Z" fill="#2c2a2b"/>
            </g>
            <g id="Group_67" data-name="Group 67">
              <path id="Path_135" data-name="Path 135" d="M90.383,124.057a.06.06,0,0,1-.031-.008,2.861,2.861,0,0,0-3.313-.01.065.065,0,0,1-.1-.019.106.106,0,0,1,.016-.128c.054-.049,1.349-1.188,3.462-.009a.1.1,0,0,1,.037.121A.075.075,0,0,1,90.383,124.057Z" fill="#2c2a2b"/>
            </g>
            <path id="Path_136" data-name="Path 136" d="M93.832,123.425a21.8,21.8,0,0,0,.087,3l.242,2.48a18.283,18.283,0,0,1-.886-6.888c.292-3.227.869-7.285,1.021-10.046Z" fill="#0e1a30"/>
            <g id="Group_68" data-name="Group 68">
              <path id="Path_137" data-name="Path 137" d="M66.253,143.586h-.005a.087.087,0,0,1-.069-.1c.228-4.153,2.372-10.311,2.746-10.617a.066.066,0,0,1,.1.025.1.1,0,0,1-.021.126,34.326,34.326,0,0,0-2.68,10.478A.083.083,0,0,1,66.253,143.586Z" fill="#2c2a2b"/>
            </g>
            <g id="Group_69" data-name="Group 69">
              <path id="Path_138" data-name="Path 138" d="M78.983,157.383a.082.082,0,0,1-.073-.081c-.369-4.061-2.469-8.565-3.6-10.986a6.512,6.512,0,0,1-.682-1.676c.006-.05.044-.087.084-.077a.089.089,0,0,1,.063.1,10.494,10.494,0,0,0,.664,1.561c1.134,2.431,3.243,6.958,3.616,11.056a.088.088,0,0,1-.065.1Z" fill="#2c2a2b"/>
            </g>
            <g id="Group_70" data-name="Group 70">
              <path id="Path_139" data-name="Path 139" d="M83.721,133.038h0a.085.085,0,0,1-.073-.092c.048-4.968,1.672-10.2,2.223-10.9a.065.065,0,0,1,.1,0,.106.106,0,0,1,0,.129c-.541.684-2.134,5.847-2.181,10.771A.084.084,0,0,1,83.721,133.038Z" fill="#2c2a2b"/>
            </g>
            <g id="Group_71" data-name="Group 71">
              <path id="Path_140" data-name="Path 140" d="M95.831,146.05a.079.079,0,0,1-.072-.07c-.636-3.281-3.719-9.545-3.964-9.922a.107.107,0,0,1,.012-.128.066.066,0,0,1,.1.014c.247.38,3.352,6.689,3.992,9.994a.094.094,0,0,1-.055.11Z" fill="#2c2a2b"/>
            </g>
            <g id="Group_72" data-name="Group 72">
              <path id="Path_141" data-name="Path 141" d="M71.119,114.367a.061.061,0,0,1-.033-.01.1.1,0,0,1-.032-.123,8.77,8.77,0,0,1,4.23-4.2.072.072,0,0,1,.095.055.1.1,0,0,1-.045.116,8.587,8.587,0,0,0-4.147,4.114A.074.074,0,0,1,71.119,114.367Z" fill="#2c2a2b"/>
            </g>
            <g id="Group_73" data-name="Group 73">
              <path id="Path_142" data-name="Path 142" d="M94.3,110.5a.081.081,0,0,1-.073-.076,5.387,5.387,0,0,0-1.883-3.283,1.844,1.844,0,0,1-.528-.628.1.1,0,0,1,.045-.116.071.071,0,0,1,.095.055,2.007,2.007,0,0,0,.479.545,5.553,5.553,0,0,1,1.938,3.4.092.092,0,0,1-.061.105Z" fill="#2c2a2b"/>
            </g>
            <g id="Group_74" data-name="Group 74">
              <path id="Path_143" data-name="Path 143" d="M76.013,102.237a.071.071,0,0,1-.062-.041.1.1,0,0,1,.02-.126c.045-.037,1.14-.915,4.039-.987.039-.006.074.039.076.089a.085.085,0,0,1-.073.093c-2.848.071-3.949.947-3.96.956A.066.066,0,0,1,76.013,102.237Z" fill="#2c2a2b"/>
            </g>
            <g id="Group_75" data-name="Group 75">
              <path id="Path_144" data-name="Path 144" d="M76.677,96.89a.065.065,0,0,1-.022,0,.1.1,0,0,1-.049-.114,4.542,4.542,0,0,1,2.419-2.715,1.789,1.789,0,0,0,.182-.106.063.063,0,0,1,.1,0,.109.109,0,0,1,0,.131.773.773,0,0,1-.227.145,4.393,4.393,0,0,0-2.339,2.6A.078.078,0,0,1,76.677,96.89Z" fill="#2c2a2b"/>
            </g>
            <path id="Path_145" data-name="Path 145" d="M89.236,90c.324.2-1.3,1.94-1.693,1.459-1.63-1.986-3.069-4.133-2.976-4.768h0c-.006-.125.11-.2.192-.128A34.2,34.2,0,0,0,89.236,90Z" fill="#ffb287"/>
            <g id="Group_76" data-name="Group 76">
              <path id="Path_146" data-name="Path 146" d="M86.36,93.369a1.375,1.375,0,0,1-.172.906l-.062.1L84.346,83.2c.023-.824-.183-1.03-.42-1.023l-8.148.019.242-.265a.666.666,0,0,1,.555-.358l7.649-.047a.5.5,0,0,1,.455.465Z" fill="#0e1a30"/>
              <path id="Path_147" data-name="Path 147" d="M84.515,82.477,86.236,94a.4.4,0,0,1-.332.489H78.1a.5.5,0,0,1-.452-.453L75.707,82.544a.4.4,0,0,1,.329-.5l8.023-.034A.5.5,0,0,1,84.515,82.477Z" fill="#ebf6ff"/>
              <path id="Path_148" data-name="Path 148" d="M81.211,86.355a.772.772,0,0,1-.84.731.826.826,0,0,1-.753-.863.773.773,0,0,1,.84-.731A.826.826,0,0,1,81.211,86.355Z" fill="#0e1a30"/>
            </g>
            <g id="Group_77" data-name="Group 77">
              <path id="Path_149" data-name="Path 149" d="M64.732,85.328l-3.461-2.947-.776-.66,1.863-3.562.359.264,1.95,1.428A25.037,25.037,0,0,1,64.732,85.328Z" fill="#ffb287"/>
              <path id="Path_150" data-name="Path 150" d="M62.356,78.359l-1.084,4s-3.507-.716-4.229-1.522c-.539-.6,1.151-3.29,1.151-3.29Z" fill="#ffb287"/>
              <path id="Path_151" data-name="Path 151" d="M63.624,79.162c.266.3-1.68,1.429-1.953.833-1.126-2.458-2.032-5.007-1.8-5.587h0c.022-.123.151-.158.213-.059A40.551,40.551,0,0,0,63.624,79.162Z" fill="#ffb287"/>
              <path id="Path_152" data-name="Path 152" d="M58.245,78.723a.85.85,0,0,1-.157-.071l-.073-.051c-.053-.036-.08-.064-.121-.1-.073-.063-.14-.125-.2-.189-.13-.126-.251-.255-.37-.388-.237-.264-.461-.54-.677-.825a20.542,20.542,0,0,1-1.214-1.865c-.086-.15.018-.353.165-.323h0a1.145,1.145,0,0,1,.689.478,12.573,12.573,0,0,0,.883,1.064c.219.245.445.481.677.7.116.11.234.215.351.312.058.049.118.094.172.134a.864.864,0,0,0,.075.05l.028.016a.1.1,0,0,0-.05-.02Z" fill="#ffb287"/>
              <path id="Path_153" data-name="Path 153" d="M58.211,79.473a1.09,1.09,0,0,1-.153-.066l-.077-.047c-.054-.032-.093-.062-.139-.093-.09-.061-.17-.124-.255-.187q-.247-.191-.483-.393c-.316-.27-.622-.553-.917-.857a12.209,12.209,0,0,1-1.634-2.143c-.057-.1,0-.235.1-.236h0a1.079,1.079,0,0,1,.886.467,7.3,7.3,0,0,0,1.1,1.193c.292.261.6.5.906.733.155.114.311.223.469.327.078.05.158.1.234.146.037.021.079.048.11.062l.049.026s-.014-.009-.022-.007Z" fill="#ffb287"/>
              <path id="Path_154" data-name="Path 154" d="M58.041,80.567a1.4,1.4,0,0,1-.128-.064l-.078-.05c-.055-.034-.1-.066-.144-.1-.093-.065-.18-.132-.268-.2-.174-.136-.345-.275-.512-.421-.334-.29-.657-.6-.968-.922a15.443,15.443,0,0,1-1.749-2.217c-.083-.133,0-.322.14-.307l.052.005a1.18,1.18,0,0,1,.807.507,8.88,8.88,0,0,0,1.214,1.3c.306.284.626.548.953.795.163.124.329.241.5.353.083.055.167.11.249.159.04.023.084.052.12.07l.055.03c.01,0,.007,0,.009,0Z" fill="#ffb287"/>
              <path id="Path_155" data-name="Path 155" d="M57.994,81.372l-.108-.039-.072-.033-.135-.067c-.059-.029-.115-.06-.171-.091-.112-.062-.225-.125-.335-.193a9.642,9.642,0,0,1-1.187-.859,9.339,9.339,0,0,1-1.661-1.958.217.217,0,0,1,.124-.332h0a.772.772,0,0,1,.678.325,5.991,5.991,0,0,0,1.258,1.2,8.561,8.561,0,0,0,1.146.7c.1.051.2.1.3.142.051.023.1.046.153.066l.113.044.053.019a.083.083,0,0,1,.019,0Z" fill="#ffb287"/>
            </g>
            <g id="Group_78" data-name="Group 78">
              <path id="Path_156" data-name="Path 156" d="M85.255,91.249a.891.891,0,0,1-.183.035l-.093,0a1.527,1.527,0,0,1-.16-.015c-.1-.014-.19-.03-.28-.05-.18-.038-.354-.083-.527-.134A10.761,10.761,0,0,1,83,90.726a16.94,16.94,0,0,1-1.989-1.015.252.252,0,0,1,.02-.423h0a1.077,1.077,0,0,1,.877.012,10.509,10.509,0,0,0,1.32.455,9.677,9.677,0,0,0,.961.235c.16.03,1,.168.985.179Z" fill="#ffb287"/>
              <path id="Path_157" data-name="Path 157" d="M84.882,91.963a1.011,1.011,0,0,1-.164.02l-.088,0c-.061,0-.108-.008-.161-.013-.1-.009-.2-.025-.3-.038-.2-.031-.391-.066-.584-.108a11,11,0,0,1-1.147-.306A9.634,9.634,0,0,1,80.175,90.4a.171.171,0,0,1,.01-.271h0a.992.992,0,0,1,.983-.037,5.837,5.837,0,0,0,1.437.52,10.228,10.228,0,0,0,1.094.2c.183.024.366.042.548.055.089,0,.182.012.267.012.041,0,.09,0,.124,0l.055,0s-.016,0-.023.005Z" fill="#ffb287"/>
              <path id="Path_158" data-name="Path 158" d="M85.443,93.007c-.046,0-.1.009-.141.008l-.089,0c-.062,0-.111-.01-.167-.015-.109-.011-.213-.027-.318-.042-.209-.034-.415-.072-.62-.118a11.345,11.345,0,0,1-1.217-.341A12.2,12.2,0,0,1,80.5,91.369a.216.216,0,0,1,.022-.357l.05-.023a1.045,1.045,0,0,1,.923.042,7.144,7.144,0,0,0,1.577.561,10.5,10.5,0,0,0,1.159.23c.194.028.389.049.581.065.1.007.193.013.285.016.045,0,.1,0,.135,0h.062c.011,0,.006,0,.01,0Z" fill="#ffb287"/>
              <path id="Path_159" data-name="Path 159" d="M85.766,93.556l-.114.018-.078.005-.149.006c-.064,0-.127,0-.189,0-.126,0-.252,0-.378-.012a8.268,8.268,0,0,1-1.395-.2,7.49,7.49,0,0,1-2.2-.99.237.237,0,0,1,0-.372h0a.721.721,0,0,1,.742-.038,4.918,4.918,0,0,0,1.574.483,7.563,7.563,0,0,0,1.3.073c.11,0,.22-.011.33-.019.055,0,.111-.009.164-.015l.12-.016.056-.009a.1.1,0,0,1,.019-.005Z" fill="#ffb287"/>
              <path id="Path_160" data-name="Path 160" d="M90.905,93.31l-1.6.454a5.447,5.447,0,0,1-1.873.2c-.332-.025-.725-.058-1.128-.1a6.918,6.918,0,0,1-2.461-.561c-.611-.434.7-3.166.7-3.166l2.749-.054.322-.008-.04-.244s.326-.144.805-.347h0C89.411,89.484,90.3,90.961,90.905,93.31Z" fill="#ffb287"/>
            </g>
            <g id="Group_79" data-name="Group 79">
              <path id="Path_161" data-name="Path 161" d="M84.563,92.128h-.007a9.6,9.6,0,0,1-4.4-1.641.113.113,0,0,1-.034-.129c.02-.043.058-.064.093-.04l.016.011a9.466,9.466,0,0,0,4.342,1.617.088.088,0,0,1,.068.1A.082.082,0,0,1,84.563,92.128Z" fill="#a55930"/>
            </g>
            <g id="Group_80" data-name="Group 80">
              <path id="Path_162" data-name="Path 162" d="M84.5,93.106H84.49a10.766,10.766,0,0,1-4.029-1.657.1.1,0,0,1-.028-.124.067.067,0,0,1,.1-.034,10.612,10.612,0,0,0,3.971,1.634.088.088,0,0,1,.066.1A.082.082,0,0,1,84.5,93.106Z" fill="#a55930"/>
            </g>
            <g id="Group_81" data-name="Group 81">
              <path id="Path_163" data-name="Path 163" d="M84.563,91.219h-.006a6.592,6.592,0,0,1-1.892-.525.1.1,0,0,1-.043-.117.071.071,0,0,1,.1-.053,6.442,6.442,0,0,0,1.85.514.088.088,0,0,1,.068.1A.082.082,0,0,1,84.563,91.219Z" fill="#a55930"/>
            </g>
            <g id="Group_82" data-name="Group 82">
              <path id="Path_164" data-name="Path 164" d="M61.6,79.769a.066.066,0,0,1-.047-.021,7.572,7.572,0,0,1-1.025-2.28l-.015-.045a.1.1,0,0,1,.038-.12.069.069,0,0,1,.1.044l.018.055a6.76,6.76,0,0,0,.982,2.206.106.106,0,0,1,.01.128A.07.07,0,0,1,61.6,79.769Z" fill="#a55930"/>
            </g>
            <g id="Group_83" data-name="Group 83">
              <path id="Path_165" data-name="Path 165" d="M57.131,80.46a.06.06,0,0,1-.028-.007.1.1,0,0,1-.041-.119l.042-.127c.272-.825.778-2.36,1.286-2.643a.069.069,0,0,1,.1.045.1.1,0,0,1-.037.121c-.453.252-.983,1.859-1.209,2.545L57.2,80.4A.076.076,0,0,1,57.131,80.46Z" fill="#a55930"/>
            </g>
            <g id="Group_84" data-name="Group 84">
              <path id="Path_166" data-name="Path 166" d="M60.363,80.46a.07.07,0,0,1-.059-.036.105.105,0,0,1,.015-.128,1.461,1.461,0,0,1,1.889-.039.106.106,0,0,1,0,.129.064.064,0,0,1-.1.006,1.339,1.339,0,0,0-1.7.05A.064.064,0,0,1,60.363,80.46Z" fill="#a55930"/>
            </g>
            <g id="Group_85" data-name="Group 85">
              <path id="Path_167" data-name="Path 167" d="M57.192,79.929a.065.065,0,0,1-.035-.011c-.182-.122-1.092-.732-1.126-.759a.1.1,0,0,1-.022-.126.067.067,0,0,1,.1-.027c.036.027.687.464,1.116.752a.1.1,0,0,1,.03.124A.073.073,0,0,1,57.192,79.929Z" fill="#a55930"/>
            </g>
            <g id="Group_86" data-name="Group 86">
              <path id="Path_168" data-name="Path 168" d="M57.588,79.17a.064.064,0,0,1-.036-.011A16.406,16.406,0,0,1,55.488,77.3a.106.106,0,0,1,0-.129.065.065,0,0,1,.1-.005A16.24,16.24,0,0,0,57.624,79a.1.1,0,0,1,.028.124A.072.072,0,0,1,57.588,79.17Z" fill="#a55930"/>
            </g>
            <g id="Group_87" data-name="Group 87">
              <path id="Path_169" data-name="Path 169" d="M57.942,78.261a.061.061,0,0,1-.028-.007,9.934,9.934,0,0,1-1.777-1.508.107.107,0,0,1-.009-.129.065.065,0,0,1,.1-.01,10.055,10.055,0,0,0,1.737,1.478.1.1,0,0,1,.04.119A.076.076,0,0,1,57.942,78.261Z" fill="#a55930"/>
            </g>
            <g id="Group_88" data-name="Group 88">
              <path id="Path_170" data-name="Path 170" d="M87.953,61.039a.062.062,0,0,1-.04-.014.1.1,0,0,1-.023-.125c0-.009.484-.921,1.264-.5a.1.1,0,0,1,.038.12.069.069,0,0,1-.1.047c-.66-.355-1.062.4-1.079.432A.072.072,0,0,1,87.953,61.039Z" fill="#a55930"/>
            </g>
            <g id="Group_89" data-name="Group 89">
              <path id="Path_171" data-name="Path 171" d="M83.676,78.518a.062.062,0,0,1-.032-.009.1.1,0,0,1-.034-.122,8.328,8.328,0,0,1,2.314-3.054.066.066,0,0,1,.1.027.1.1,0,0,1-.022.126,8.138,8.138,0,0,0-2.261,2.98A.075.075,0,0,1,83.676,78.518Z" fill="#2c2a2b"/>
            </g>
          </g>
        </g>
      </g>
    </g>
  </g>
</svg>
